<?xml version="1.0" standalone="no"?>
<!DOCTYPE svg PUBLIC "-//W3C//DTD SVG 20010904//EN"
 "http://www.w3.org/TR/2001/REC-SVG-20010904/DTD/svg10.dtd">
<svg version="1.0" xmlns="http://www.w3.org/2000/svg"
 width="711.000000pt" height="899.000000pt" viewBox="0 0 711.000000 899.000000"
 preserveAspectRatio="xMidYMid meet">
<metadata>
Created by potrace 1.15, written by Peter Selinger 2001-2017
</metadata>
<g transform="translate(0.000000,899.000000) scale(0.100000,-0.100000)"
fill="#000000" stroke="none">
<path d="M0 8762 c0 -215 1 -228 19 -237 121 -61 247 -150 245 -172 -1 -7 2
-13 7 -13 5 0 9 5 9 11 0 6 6 9 13 6 6 -2 11 -11 9 -19 -1 -9 14 -30 33 -47
20 -17 34 -35 30 -40 -7 -13 -115 -7 -123 7 -11 17 -167 92 -170 82 -5 -13
-32 -13 -32 0 0 6 5 10 11 10 5 0 7 5 4 10 -3 6 -17 10 -31 10 l-24 0 0 -144
c0 -106 3 -146 13 -150 9 -5 9 -7 -1 -12 -9 -4 -12 -63 -12 -246 0 -213 2
-238 15 -224 8 8 15 23 15 34 0 16 5 19 22 14 14 -3 19 -1 14 6 -3 6 -2 13 4
17 5 3 10 1 10 -4 0 -16 56 -13 74 4 8 8 22 15 30 15 20 0 20 7 2 26 -13 12
-16 12 -24 -2 -7 -12 -11 -13 -17 -5 -4 8 4 16 24 24 17 6 31 15 31 19 0 9
-36 5 -46 -5 -14 -14 -34 -6 -34 13 0 11 7 20 16 20 8 0 12 5 8 11 -4 8 1 9
17 5 23 -7 23 -6 5 8 -10 8 -15 19 -11 25 9 16 25 13 25 -4 0 -15 29 -35 51
-35 8 0 9 3 0 14 -6 7 -8 27 -5 45 4 20 3 31 -5 31 -6 0 -11 7 -11 15 0 8 5
15 10 15 6 0 10 -5 10 -10 0 -7 7 -7 21 0 11 7 18 18 15 25 -8 22 33 29 55 9
18 -16 19 -16 19 5 0 18 4 21 22 16 15 -4 19 -3 10 3 -9 6 -6 12 14 21 20 9
30 9 40 0 11 -9 15 -8 20 5 3 9 14 16 23 16 18 0 46 54 36 70 -4 6 -1 17 5 25
10 12 9 15 -3 15 -8 0 -18 -6 -20 -12 -4 -10 -6 -9 -6 1 -1 18 -38 49 -81 68
-19 8 -29 17 -22 20 20 8 14 25 -7 18 -11 -3 -22 -1 -25 4 -12 18 13 22 48 7
30 -12 34 -12 29 0 -3 8 0 14 6 14 6 0 11 -4 11 -10 0 -16 22 -12 37 8 13 16
14 15 8 -5 -5 -19 -3 -22 11 -16 33 13 62 44 57 63 -5 19 28 37 47 25 5 -3 19
-8 29 -10 23 -4 37 23 16 31 -24 9 -19 37 5 29 12 -4 20 -2 20 6 0 14 30 38
49 39 8 0 11 -6 7 -15 -3 -9 0 -15 10 -15 22 0 13 34 -11 40 -25 7 -27 36 -3
32 12 -2 16 2 12 13 -3 8 -1 15 5 15 6 0 11 -6 11 -12 0 -8 7 -5 15 6 13 17
15 17 21 3 3 -10 16 -17 29 -17 16 0 27 -10 39 -34 9 -19 16 -37 16 -42 0 -4
7 -15 15 -24 20 -22 75 -130 75 -147 0 -7 4 -13 9 -13 5 0 12 -16 15 -35 4
-19 12 -40 19 -47 7 -7 19 -33 27 -58 7 -25 19 -52 25 -60 17 -22 37 -76 34
-91 -2 -8 2 -23 8 -34 6 -11 28 -72 48 -135 21 -63 42 -119 46 -124 5 -6 9
-18 9 -28 0 -10 4 -26 9 -36 5 -9 31 -61 57 -115 33 -68 50 -94 56 -85 6 9 7
5 3 -9 -4 -15 1 -29 15 -43 12 -12 24 -20 26 -17 7 7 -63 225 -306 952 -127
380 -238 711 -246 738 l-15 47 -399 0 -400 0 0 -228z"/>
<path d="M920 8987 c0 -2 16 -51 36 -108 20 -57 114 -333 209 -614 225 -664
303 -889 330 -950 7 -16 16 -37 18 -45 3 -8 6 4 6 28 1 24 -2 41 -6 39 -5 -3
-9 24 -11 60 -1 35 -9 83 -16 106 -8 23 -17 61 -21 85 -4 23 -11 42 -16 42 -5
0 -9 14 -9 30 0 17 -4 30 -10 30 -5 0 -9 8 -7 18 1 9 -15 71 -37 137 -21 66
-43 136 -48 155 -6 19 -17 51 -26 70 -8 19 -20 60 -27 90 -17 74 -63 228 -75
251 -6 10 -10 29 -10 43 0 15 -4 34 -9 44 -10 19 -27 84 -42 157 -6 28 -14 55
-19 60 -13 18 -21 65 -10 65 18 0 11 22 -9 27 -23 6 -35 29 -20 39 6 4 5 11
-3 21 -10 13 -7 19 17 37 16 11 38 24 49 28 18 5 17 6 -6 7 -16 1 -28 -3 -28
-9 0 -13 -37 -13 -45 -1 -3 6 2 14 12 19 14 9 15 13 4 26 -10 12 -32 16 -92
16 -44 0 -79 -2 -79 -3z"/>
<path d="M3791 8915 c-72 -108 -92 -191 -48 -197 25 -3 32 -44 7 -42 -10 1
-15 -8 -16 -25 -1 -29 -8 -66 -20 -96 -7 -19 -7 -19 13 -2 20 18 21 17 25 -12
5 -35 0 -45 -24 -54 -10 -3 -18 -14 -18 -24 0 -13 3 -14 12 -5 7 7 19 12 28
11 10 0 11 -2 3 -6 -9 -3 -10 -10 -3 -23 7 -13 7 -21 0 -25 -5 -3 -10 -11 -10
-17 0 -6 9 -3 20 7 30 27 24 4 -11 -45 l-32 -44 57 -49 57 -50 -27 -28 -26
-28 53 -34 c65 -42 105 -84 148 -156 45 -74 48 -88 37 -172 -7 -54 -6 -57 24
-83 17 -14 26 -26 18 -26 -10 0 -10 -2 1 -9 11 -7 9 -11 -8 -20 -32 -18 -172
-51 -211 -50 -34 0 -35 0 -11 13 23 13 23 13 3 18 -14 4 -19 12 -16 24 3 12
-6 30 -23 49 -44 47 -83 102 -83 119 0 8 -13 23 -30 33 -31 18 -33 25 -30 81
1 30 0 32 -23 27 -20 -5 -27 -2 -32 15 -7 21 -13 21 -70 0 -49 -19 -155 -137
-155 -173 0 -3 24 -15 54 -27 43 -17 55 -27 59 -49 3 -14 24 -50 47 -79 23
-29 38 -52 33 -52 -4 0 -18 -3 -31 -6 -13 -4 -22 -2 -20 3 2 5 -12 22 -29 37
-18 15 -40 42 -48 60 -17 35 -82 73 -160 95 -52 14 -92 14 -52 -1 15 -5 25
-14 22 -19 -3 -4 6 -11 20 -15 13 -3 22 -10 19 -16 -3 -5 -11 -5 -19 2 -9 7
-15 8 -20 1 -4 -7 -23 -4 -53 8 -60 23 -110 35 -97 23 6 -5 31 -17 57 -26 52
-19 65 -31 47 -42 -7 -4 -9 -3 -6 3 4 6 -2 13 -13 16 -11 3 -20 1 -20 -4 0 -5
5 -9 10 -9 6 0 10 -5 10 -12 0 -9 -3 -9 -12 0 -7 7 -26 12 -44 12 -17 0 -43
10 -58 21 -31 25 -43 20 -26 -11 14 -25 16 -22 -37 -49 -93 -47 -125 -11 -53
61 26 26 45 38 55 34 9 -3 14 -2 11 3 -13 20 108 50 209 52 l70 1 -44 20 c-24
11 -70 22 -101 25 -41 4 -56 10 -58 22 -15 116 -17 107 25 127 32 16 38 24 37
49 -1 26 5 33 48 53 53 26 83 62 50 62 -31 0 -32 11 -1 38 16 15 30 38 31 52
3 23 0 25 -30 22 l-34 -2 21 26 c12 15 21 38 21 51 0 27 3 26 -69 7 -23 -7
-23 -5 13 58 20 36 36 67 36 71 0 3 -19 8 -42 12 -60 9 -109 25 -104 34 3 4
-4 15 -15 24 -10 9 -19 22 -19 28 0 8 7 6 18 -5 18 -15 19 -15 17 14 -1 17 -5
33 -10 38 -4 4 -4 -3 -1 -15 12 -39 -3 -25 -27 24 -15 33 -33 53 -57 65 -51
25 -62 21 -15 -5 36 -19 38 -22 17 -25 -13 -2 -31 3 -41 12 -30 27 -169 57
-281 61 l-105 4 90 -10 c100 -10 199 -28 192 -35 -3 -3 -51 0 -108 6 -57 6
-138 13 -179 15 l-75 4 73 -11 c39 -6 72 -15 72 -19 0 -12 -64 -11 -76 1 -12
12 -111 -3 -127 -20 -10 -10 -5 -11 20 -5 18 3 54 3 80 -1 l48 -8 -77 -7 c-65
-5 -81 -10 -98 -30 -24 -30 -25 -49 -2 -42 10 2 24 -2 31 -10 10 -12 6 -17
-19 -25 -95 -33 -116 -151 -44 -249 57 -78 117 -131 101 -89 -5 14 10 36 25
36 4 0 8 -11 8 -24 0 -16 7 -26 21 -29 14 -4 20 -11 16 -21 -5 -13 -2 -13 20
-5 20 7 28 6 35 -3 11 -18 10 -38 -2 -38 -5 0 -10 8 -10 18 -1 13 -4 12 -14
-7 -16 -30 -9 -62 16 -68 10 -3 18 -10 18 -15 0 -5 4 -7 9 -3 5 3 12 1 16 -5
3 -5 0 -10 -8 -10 -11 0 -37 -38 -37 -55 0 -3 14 -2 30 2 25 4 30 2 30 -13 0
-13 14 -25 40 -37 22 -9 40 -21 40 -26 0 -5 3 -16 6 -25 4 -11 1 -16 -10 -16
-9 0 -16 -4 -16 -10 0 -5 -12 -16 -27 -24 l-28 -15 33 -1 c36 0 92 -45 92 -74
0 -13 6 -15 28 -10 15 4 24 3 20 -1 -4 -4 2 -16 13 -28 26 -29 24 -38 -18 -78
-20 -18 -31 -25 -24 -14 19 27 -89 -82 -118 -120 -12 -16 -20 -23 -16 -15 3 8
-2 4 -12 -10 -25 -36 -135 -141 -141 -136 -6 7 -42 -39 -42 -53 0 -6 -3 -11
-8 -11 -4 0 -25 -22 -47 -49 -21 -28 -43 -47 -48 -44 -6 3 -7 1 -3 -6 4 -6 -4
-25 -18 -42 -30 -36 -32 -45 -10 -53 10 -4 22 1 29 11 11 15 13 2 12 -77 0
-52 3 -110 7 -127 6 -25 4 -33 -6 -33 -13 0 -218 -202 -218 -214 0 -3 6 -6 14
-6 24 0 27 -31 6 -60 -11 -16 -38 -37 -60 -47 -44 -20 -52 -40 -17 -45 13 -3
3 -7 -28 -12 -67 -10 -119 -33 -147 -65 l-23 -26 25 22 c34 29 70 42 103 36
39 -8 33 -20 -12 -28 -22 -3 -47 -13 -58 -20 -16 -13 -15 -13 14 -6 39 11 52
2 21 -16 -15 -8 -18 -13 -8 -13 21 -1 70 -69 70 -97 0 -62 -70 -122 -142 -123
-26 0 -27 -2 -30 -67 -3 -65 -4 -68 -28 -68 l-25 0 -3 121 c-2 106 -5 124 -22
139 -13 11 -20 14 -20 6 0 -7 -4 -10 -9 -6 -6 3 -14 -2 -19 -11 -5 -8 -27 -18
-50 -21 -61 -8 -112 -59 -112 -110 0 -49 17 -110 34 -120 7 -5 19 -21 27 -38
9 -19 25 -33 45 -39 31 -9 32 -11 39 -83 4 -40 11 -75 16 -78 5 -3 3 -15 -4
-26 -10 -16 -8 -27 14 -65 14 -25 30 -47 35 -47 5 -1 10 24 12 56 l3 57 79 0
c44 0 80 -4 80 -9 0 -30 -14 -41 -51 -41 -37 0 -39 -2 -39 -30 0 -28 3 -30 35
-30 31 0 35 -3 35 -25 0 -22 -4 -25 -35 -25 -33 0 -35 -2 -35 -35 0 -25 5 -37
18 -41 9 -3 25 -9 34 -14 11 -6 30 -4 55 5 21 7 33 14 26 14 -14 1 -33 62 -33
109 0 77 59 129 136 118 46 -6 43 -8 179 108 25 21 48 36 51 33 5 -5 -11 -63
-34 -124 -2 -7 2 -13 10 -13 8 0 24 -31 40 -77 l27 -78 0 78 1 77 30 0 30 0 0
-130 0 -130 -43 0 c-39 0 -44 3 -55 32 -11 31 -12 31 -27 13 -8 -11 -15 -25
-15 -32 -1 -31 -220 -382 -253 -404 -18 -13 2 -38 65 -85 78 -58 163 -100 297
-150 103 -38 120 -50 104 -77 -7 -13 -17 -12 -70 4 -35 11 -63 24 -63 29 0 5
-10 10 -22 12 -13 2 -22 9 -21 15 2 7 -4 10 -13 6 -15 -5 -91 41 -151 93 -15
13 -32 24 -36 24 -5 0 -22 9 -38 21 -16 11 -29 17 -29 12 0 -4 -9 7 -20 25
-11 17 -26 32 -34 32 -21 0 -149 132 -237 245 -41 52 -77 94 -81 94 -23 2 15
-187 78 -396 l47 -151 -22 -30 c-12 -18 -17 -32 -10 -34 11 -4 -75 -110 -167
-204 -134 -139 -160 -169 -183 -221 -6 -13 -15 -23 -20 -23 -5 0 -20 -24 -34
-54 -15 -32 -35 -57 -46 -61 -12 -3 -21 -12 -21 -20 0 -8 -9 -17 -20 -20 -11
-3 -20 -10 -20 -14 0 -4 -21 -23 -47 -41 -27 -19 -54 -40 -61 -47 -15 -15 -23
-16 -46 -7 -13 5 -14 9 -5 20 14 17 -2 19 -18 3 -8 -8 -11 1 -11 34 l1 45 36
-4 c20 -2 30 -2 24 2 -7 3 -13 14 -13 25 0 13 7 19 24 19 14 0 28 -4 31 -10
10 -16 40 -12 58 8 10 10 17 21 17 24 0 3 -22 8 -48 12 -26 3 -58 13 -71 22
-13 9 -26 13 -30 8 -8 -12 -31 -16 -31 -6 -4 73 -16 131 -32 158 -22 38 -30
41 -49 18 -18 -21 -59 -39 -89 -38 -14 1 -37 2 -52 3 -15 0 -33 8 -42 16 -18
19 -19 19 -43 -3 -17 -14 -22 -35 -28 -115 -7 -94 -6 -99 11 -93 23 7 38 -3
42 -27 4 -22 -27 -35 -42 -16 -21 26 -37 21 -30 -8 6 -27 5 -27 -22 8 -16 21
-37 42 -47 48 -14 10 -19 7 -27 -15 -8 -21 -7 -29 11 -43 22 -17 22 -18 4 -64
-12 -31 -16 -63 -13 -96 l5 -49 -41 -7 c-38 -6 -43 -4 -74 32 -29 33 -31 38
-15 44 10 4 22 4 27 1 5 -3 6 0 2 6 -4 7 -2 12 4 12 7 0 9 8 5 19 -3 11 -1 22
5 26 6 4 8 14 6 23 -3 10 -8 57 -11 105 -5 91 -13 137 -23 137 -3 0 -13 -7
-23 -16 -17 -15 -17 -14 -13 22 3 21 8 41 13 44 5 3 12 16 16 29 5 18 9 20 16
10 5 -8 9 51 9 146 0 212 8 297 28 312 22 18 8 27 -17 12 -38 -24 -71 -101
-71 -166 0 -69 -5 -78 -34 -58 -11 8 -23 15 -26 15 -9 0 1 -222 14 -302 8 -49
9 -78 3 -78 -5 0 10 -17 34 -38 36 -33 43 -45 43 -76 0 -21 -6 -41 -13 -46 -8
-4 -10 -13 -7 -19 4 -7 -1 -11 -13 -11 -11 0 -23 5 -26 10 -4 6 -11 8 -16 5
-5 -4 -16 1 -25 9 -9 10 -11 16 -4 16 7 0 5 6 -4 16 -9 8 -16 21 -16 28 0 7
-16 27 -35 45 -19 17 -35 36 -35 41 0 6 -9 10 -19 10 -11 0 -21 6 -24 13 -3 6
-10 -1 -16 -17 -6 -16 -14 -26 -17 -23 -3 3 0 15 6 27 6 12 9 25 5 28 -3 3 -8
-4 -12 -16 -3 -12 -10 -22 -15 -22 -5 0 -7 -4 -4 -9 6 -10 -24 -25 -32 -16 -3
3 0 5 7 5 16 0 10 31 -9 48 -11 10 -11 12 -1 6 11 -6 12 -2 6 17 -4 13 -10 63
-14 110 -5 61 -12 91 -24 103 -9 10 -17 24 -17 32 0 8 -10 14 -25 14 -23 0
-31 -16 -27 -52 2 -9 -74 -38 -98 -38 -38 0 -20 -19 23 -23 l42 -4 -42 -1 -43
-2 0 -79 c0 -44 4 -91 10 -105 6 -16 6 -28 0 -31 -6 -4 -10 -835 -10 -2150 l0
-2145 729 0 c541 0 732 3 737 12 4 7 3 8 -4 4 -7 -4 -12 -1 -12 6 0 7 0 478 0
1046 0 1109 -2 1060 50 1107 19 18 40 21 174 25 l151 5 -130 5 -130 6 138 2
c90 1 136 -1 132 -8 -9 -15 11 -12 24 4 9 11 7 15 -10 19 -12 3 -18 10 -14 17
3 6 1 9 -6 8 -6 -2 -14 3 -17 11 -3 8 0 11 7 7 7 -5 9 2 5 22 -4 20 -1 34 11
45 14 15 42 17 199 17 l182 0 -2 -27 c-1 -27 -3 -28 -57 -31 l-57 -3 3 -79 3
-80 -32 0 -31 0 4 79 4 79 -73 4 c-40 2 -77 0 -83 -4 -5 -5 -2 -8 7 -8 22 0
58 -47 58 -76 0 -12 -10 -35 -23 -49 l-22 -26 -162 0 c-171 1 -205 -5 -224
-41 -10 -18 -13 -252 -13 -1030 -1 -570 3 -1006 8 -1005 5 1 11 -4 14 -12 3
-9 0 -11 -9 -6 -8 5 -5 -1 5 -13 18 -21 32 -30 23 -14 -3 4 569 6 1271 4 831
-1 1278 -6 1280 -12 2 -6 34 -9 70 -8 64 1 65 1 22 8 l-45 7 48 1 c26 1 47 -2
47 -8 0 -6 58 -9 158 -8 117 1 140 3 92 8 l-65 7 62 1 c34 1 65 -3 68 -8 4 -6
62 -9 148 -8 138 2 139 2 52 8 l-90 7 95 -4 c52 -2 202 -6 333 -9 l238 -5 29
30 30 29 0 1002 c0 1110 4 1038 -65 1065 -23 9 -342 11 -1342 11 -722 -1
-1322 2 -1333 6 -13 5 -19 13 -14 20 4 7 3 10 -1 5 -5 -4 -22 5 -38 20 l-29
28 4 -37 4 -38 -41 0 -40 0 3 110 3 110 93 0 c102 0 118 -8 132 -64 6 -25 3
-33 -22 -52 -20 -16 -25 -27 -18 -34 7 -7 231 -9 690 -7 l679 2 -682 3 c-376
1 -683 5 -683 10 0 4 379 6 842 4 729 -2 843 0 857 13 9 8 33 21 53 29 32 14
37 14 42 0 11 -29 6 -33 -46 -37 -29 -2 168 -4 437 -5 477 -2 491 -3 515 -23
l25 -20 -25 11 c-22 10 -21 8 5 -12 16 -13 34 -23 39 -23 5 0 11 -6 14 -14 3
-9 0 -11 -9 -7 -9 4 -8 3 1 -4 13 -10 14 -135 10 -1053 -3 -573 -9 -1050 -14
-1060 -8 -16 35 -17 828 -17 l836 0 0 1305 c0 1269 -1 1305 -19 1305 -10 0
-32 -3 -48 -6 -26 -5 -31 -12 -40 -52 l-10 -47 -2 52 c0 28 -4 58 -7 67 -5 14
4 16 60 16 l66 0 0 567 0 567 -27 -26 c-30 -28 -59 -33 -67 -11 -7 16 3 43 15
43 5 0 9 5 9 12 0 6 -9 3 -20 -7 -11 -10 -20 -24 -20 -31 0 -9 -18 -7 -69 11
-38 13 -94 28 -125 35 -31 6 -56 16 -56 22 0 5 -5 8 -12 6 -7 -3 -23 9 -37 24
-20 25 -22 33 -13 53 15 33 57 58 93 57 34 -1 62 -17 134 -77 55 -46 113 -79
160 -89 l30 -6 3 85 c2 77 0 85 -16 85 -20 0 -41 51 -34 82 3 16 5 16 18 3 9
-8 20 -15 25 -15 5 0 9 78 9 186 0 166 -2 188 -17 200 -24 18 -38 17 -23 -1 7
-9 11 -18 8 -20 -3 -3 -10 1 -17 8 -16 20 -4 44 25 51 22 6 24 12 24 61 0 30
-4 55 -10 55 -5 0 -10 23 -10 50 0 28 -4 50 -10 50 -5 0 -14 18 -20 40 -6 22
-17 40 -24 40 -28 0 -56 -35 -58 -72 -2 -29 -6 -38 -19 -38 -10 0 -21 -5 -24
-11 -5 -6 -23 -8 -49 -4 -50 9 -44 -1 10 -15 l39 -10 -50 4 c-75 7 -108 24
-100 54 4 16 2 21 -6 17 -6 -4 -9 -18 -6 -31 2 -13 1 -25 -4 -26 -4 -2 -10
-30 -13 -64 l-5 -61 30 0 c23 0 28 4 23 16 -19 48 -19 47 0 32 11 -10 16 -24
13 -39 -5 -28 16 -75 29 -64 5 4 0 -4 -11 -17 l-20 -24 42 22 c53 27 56 26 50
-5 -4 -22 -2 -25 17 -19 11 3 38 9 59 12 33 5 37 3 37 -16 0 -12 -8 -24 -17
-27 -35 -11 -63 -28 -63 -37 0 -5 7 -6 16 -3 13 5 14 1 9 -26 -4 -18 -14 -38
-21 -46 -8 -7 -14 -20 -14 -27 0 -20 -44 -47 -64 -39 -9 3 -16 2 -16 -4 0 -6
6 -13 13 -15 6 -3 -13 -3 -43 0 -30 3 -56 6 -58 7 -1 2 5 25 13 52 19 62 19
74 0 74 -28 0 -42 59 -37 159 3 52 0 96 -5 100 -5 3 -15 25 -21 49 -13 43 -31
53 -51 28 -8 -10 -9 -21 -3 -33 21 -41 -24 -93 -82 -94 l-41 -1 45 -13 45 -13
-60 5 c-33 3 -80 14 -104 24 -36 16 -41 16 -30 3 7 -9 32 -29 55 -45 34 -23
43 -35 46 -66 5 -44 -4 -62 -43 -89 -42 -28 -35 -38 11 -14 50 26 50 26 50
-10 0 -31 -22 -50 -59 -50 -22 0 -85 32 -114 58 -9 8 -20 12 -24 9 -3 -4 -1
-7 6 -7 6 0 11 -6 9 -12 -2 -14 33 -58 91 -114 32 -31 33 -35 27 -84 -13 -95
-17 -100 -86 -100 -42 0 -59 -3 -54 -11 4 -7 -1 -10 -12 -7 -13 2 -20 13 -22
33 -2 17 -8 36 -14 42 -13 16 -4 78 32 220 27 108 49 166 50 134 0 -8 2 -12 5
-9 14 14 -10 38 -39 38 -17 0 -40 7 -50 15 -21 16 -47 20 -45 8 4 -26 -2 -63
-10 -59 -5 4 -12 0 -14 -6 -4 -10 -7 -10 -15 0 -7 11 -15 9 -36 -11 -14 -13
-54 -32 -89 -42 -56 -15 -87 -35 -87 -57 0 -4 20 -8 44 -8 33 0 52 7 75 26 53
45 201 75 201 41 0 -30 -51 -117 -77 -131 -16 -8 -42 -28 -58 -43 -56 -52 -60
-54 -90 -43 l-27 10 22 -27 22 -28 -31 -27 c-17 -16 -39 -28 -48 -28 -14 0
-14 -2 1 -19 10 -11 18 -30 17 -43 -1 -46 -13 -98 -23 -98 -6 0 -8 -13 -6 -29
5 -33 3 -32 -49 7 -33 24 -33 24 -33 3 0 -12 -6 -21 -16 -21 -9 0 -14 -6 -11
-12 2 -7 10 -12 16 -11 20 5 12 -25 -9 -32 -11 -3 -20 -13 -20 -21 0 -9 5 -12
11 -8 8 4 8 0 0 -15 -14 -25 -23 -28 -14 -4 4 10 2 14 -4 10 -21 -13 -44 59
-37 113 6 43 4 49 -9 45 -9 -4 -15 -19 -15 -39 0 -19 -12 -52 -27 -76 -20 -32
-24 -45 -14 -50 7 -5 2 -7 -14 -7 -22 2 -25 6 -20 25 4 17 2 21 -11 16 -10 -4
-16 -1 -16 9 0 25 -22 32 -33 11 -10 -17 -11 -17 -18 1 -7 17 -8 18 -8 3 -1
-10 -7 -18 -15 -18 -8 0 -17 -6 -19 -12 -3 -7 -6 2 -6 20 -1 17 -6 32 -13 32
-6 0 -8 -3 -5 -6 3 -4 2 -15 -4 -25 -7 -14 -21 -19 -49 -19 -36 0 -41 4 -53
32 l-14 33 -14 -44 c-10 -30 -21 -45 -35 -47 -60 -9 -90 -17 -96 -27 -6 -9
-11 -8 -18 3 -8 12 -10 11 -10 -7 0 -16 6 -23 20 -23 11 0 20 -4 20 -10 0 -5
-11 -10 -25 -10 -18 0 -26 7 -31 25 -7 28 16 90 27 73 4 -7 11 6 14 28 4 21
14 45 23 52 14 10 11 11 -18 6 -19 -4 -37 -11 -38 -16 -2 -5 -10 -3 -18 3 -11
9 -18 9 -26 1 -6 -6 -17 -8 -25 -5 -12 5 -14 1 -8 -18 4 -13 12 -26 17 -27 5
-2 2 -15 -7 -28 -15 -23 -15 -24 9 -24 25 0 27 -10 11 -52 -5 -12 -2 -18 7
-18 8 0 19 -20 27 -45 9 -32 17 -43 25 -36 16 13 86 25 87 15 0 -5 2 -19 3
-31 2 -17 -4 -24 -25 -28 -26 -6 -50 -35 -29 -35 5 0 12 -11 16 -25 4 -15 13
-25 24 -25 11 0 20 -10 25 -27 l7 -28 13 30 c7 17 22 36 34 43 18 11 21 10 21
-7 0 -11 -6 -21 -12 -24 -10 -4 -10 -7 -1 -17 9 -10 15 -10 26 -1 12 9 16 7
21 -11 3 -13 6 -34 6 -47 0 -13 14 -46 30 -73 34 -55 37 -66 13 -47 -11 9 -8
1 7 -20 13 -18 29 -50 36 -70 l13 -36 1 37 c0 53 16 55 29 3 10 -39 8 -54 -9
-108 -18 -52 -20 -74 -13 -137 9 -92 6 -210 -6 -259 -5 -20 -12 -57 -16 -83
-5 -39 -10 -48 -26 -48 -23 0 -25 -15 -3 -24 10 -4 13 -13 10 -24 -5 -13 1
-22 19 -30 14 -7 32 -12 39 -12 8 0 13 -16 13 -46 l1 -45 -62 2 c-104 3 -102
3 -62 -37 20 -20 36 -40 36 -45 0 -5 -46 -9 -102 -10 -57 -1 -131 -2 -165 -3
-35 0 -63 0 -63 0 0 1 12 23 27 49 25 46 26 48 8 61 -10 8 -26 14 -35 14 -9 0
-50 9 -91 19 -41 11 -95 23 -121 26 l-47 7 -12 -40 c-10 -33 -15 -40 -35 -37
-13 1 -24 -2 -24 -8 0 -5 9 -7 20 -4 24 6 26 -12 5 -52 -14 -28 -46 -41 -101
-41 -21 0 -24 5 -25 38 0 37 -16 127 -18 106 0 -6 -21 8 -45 32 -58 55 -135
80 -301 95 -117 11 -133 11 -162 -4 -18 -10 -41 -17 -53 -17 -19 0 -20 2 -5
35 15 37 9 38 -29 6 -18 -15 -18 -15 -7 7 12 22 11 23 -11 17 -62 -19 -141
-89 -159 -142 l-13 -38 -7 30 c-3 17 -10 39 -14 50 -6 17 -5 18 5 5 10 -13 11
-12 4 5 -4 11 -7 28 -8 37 0 9 -3 15 -7 12 -4 -2 -9 2 -12 10 -8 20 -73 50
-93 42 -9 -4 -23 -1 -30 5 -10 8 -14 8 -14 0 0 -24 -16 -8 -39 38 -18 37 -28
47 -42 44 -12 -3 -19 -14 -19 -29 0 -13 -3 -24 -6 -24 -8 0 -34 27 -34 36 0
15 -96 94 -115 94 -12 0 -61 9 -110 19 -50 11 -106 23 -125 26 -114 19 -163
28 -230 41 -76 16 -107 24 -305 74 -107 27 -110 28 -119 9 -9 -18 -10 -18 -20
3 -10 19 -21 23 -71 25 -33 2 -94 10 -135 18 -41 7 -118 15 -170 17 -52 1
-101 6 -108 11 -7 6 -15 8 -18 5 -2 -3 -20 -72 -38 -154 -19 -82 -39 -160 -44
-174 l-11 -25 -1 30 c0 20 -3 26 -9 17 -7 -11 -9 -11 -14 2 -4 10 -1 16 7 16
7 0 19 7 26 15 10 12 10 15 0 15 -9 0 -10 10 -6 36 4 19 2 59 -4 88 -11 52
-11 52 -45 48 -21 -3 -32 -8 -28 -15 3 -5 -2 -16 -12 -23 -14 -10 -20 -31 -23
-74 -4 -48 -8 -60 -22 -60 -12 0 -22 -17 -35 -57 -10 -32 -21 -69 -26 -83 -4
-14 -18 -59 -30 -100 -21 -70 -42 -110 -53 -99 -7 7 101 381 112 388 15 11 23
43 27 124 3 44 10 86 16 94 9 10 8 13 -4 13 -15 0 -53 48 -49 62 1 4 -4 5 -11
2 -8 -3 -14 1 -15 8 -6 51 -10 62 -21 66 -7 2 -18 -4 -26 -14 -16 -22 -22 -18
-27 16 -2 21 -11 27 -48 35 -42 9 -45 12 -48 47 -3 33 -1 37 27 43 17 4 31 9
31 12 0 12 -44 43 -62 43 -10 0 -18 2 -18 4 0 2 12 39 26 82 29 87 42 224 21
224 -7 0 -6 4 2 9 9 6 22 6 32 0 10 -5 32 -9 49 -9 66 0 140 -53 145 -105 3
-25 2 -25 -45 15 -26 22 -51 40 -54 40 -11 0 -6 -36 8 -55 12 -17 12 -21 0
-30 -8 -6 -19 -37 -24 -70 -11 -69 -14 -83 -25 -108 -5 -11 -3 -23 5 -30 10
-9 14 -9 17 1 12 31 34 42 74 36 30 -5 39 -3 39 8 0 17 54 68 71 68 8 0 9 11
5 33 l-6 32 25 -29 25 -29 11 32 c8 22 16 30 26 27 8 -4 26 -9 39 -12 19 -5
24 -13 24 -39 0 -41 9 -67 21 -59 5 3 57 -10 116 -29 60 -19 145 -43 191 -53
46 -9 85 -21 88 -26 3 -4 13 -8 23 -8 10 0 24 -7 31 -15 21 -26 67 -19 84 13
l15 27 1 -27 c0 -35 7 -35 37 0 14 15 23 21 22 12 -1 -8 3 -27 11 -42 14 -29
22 -32 195 -63 128 -22 145 -27 139 -36 -3 -5 10 -9 30 -9 19 0 36 -4 38 -9 2
-5 75 -25 163 -46 88 -20 163 -39 167 -41 4 -3 19 -2 33 2 18 4 25 13 25 30 0
13 4 24 9 24 9 0 28 64 34 115 3 23 4 21 6 -11 0 -26 6 -44 15 -47 8 -3 18
-26 22 -52 5 -33 13 -51 31 -62 20 -13 26 -14 33 -3 6 10 15 7 41 -12 26 -19
61 -30 147 -44 128 -21 137 -17 127 45 -10 52 14 34 34 -27 22 -65 29 -72 63
-65 31 6 48 47 48 120 0 23 5 54 11 70 l11 28 21 -45 22 -45 4 30 c3 26 4 28
11 10 l9 -20 0 20 c1 17 4 15 16 -9 8 -16 21 -48 28 -71 14 -48 61 -106 104
-129 42 -21 180 -56 224 -56 28 0 45 7 68 31 31 30 31 32 32 137 1 59 1 116 0
127 -2 16 0 17 8 6 8 -12 11 -9 16 15 4 16 11 39 17 51 14 29 5 51 -24 55 -24
3 -34 28 -22 56 4 9 7 37 6 62 0 42 0 43 9 15 5 -16 14 -50 19 -74 21 -81 21
-34 1 69 -19 100 -19 104 -1 144 38 84 60 146 63 173 2 15 9 38 15 50 14 26
16 44 2 23 -16 -24 -12 7 4 38 18 36 31 122 18 122 -16 0 -85 31 -80 36 3 2
24 -2 46 -10 23 -9 42 -14 42 -12 0 2 -9 25 -21 51 -11 25 -18 49 -15 52 3 3
12 -13 21 -35 12 -29 21 -39 34 -35 15 4 16 11 5 88 -7 45 -17 91 -23 101 -20
36 -41 84 -38 84 2 0 61 -65 132 -145 70 -80 134 -145 142 -145 7 0 16 -6 19
-14 8 -21 27 -25 68 -16 20 4 55 4 78 -2 54 -12 108 -3 108 19 0 10 5 13 18 8
25 -10 24 -10 60 -1 17 4 32 14 32 22 0 15 16 19 24 5 3 -4 16 -6 30 -4 16 3
31 -2 46 -17 16 -16 25 -19 33 -11 14 14 40 15 32 1 -3 -5 -1 -10 4 -10 6 0
11 -3 11 -8 0 -4 -18 -6 -40 -4 -36 4 -40 2 -40 -19 0 -30 9 -43 37 -58 30
-15 53 -14 53 4 0 9 9 15 25 15 14 0 25 6 25 13 0 8 -11 19 -25 25 -28 13 -29
17 -14 60 7 21 22 35 48 45 20 9 42 21 48 29 18 22 31 119 24 180 -6 51 -5 59
11 64 24 7 68 73 68 100 0 17 -8 23 -42 28 -61 10 -135 36 -149 52 -6 8 -18
14 -25 14 -8 0 -14 7 -14 16 0 18 -45 65 -54 57 -10 -10 -37 20 -31 35 4 10 1
12 -12 7 -42 -17 -60 -16 -89 7 -56 47 -119 85 -132 80 -8 -2 -16 5 -19 18 -3
12 -16 25 -28 30 -22 8 -23 11 -17 95 1 16 11 29 25 36 13 6 36 35 50 65 32
64 32 65 10 57 -16 -6 -16 -5 0 17 9 14 17 29 17 35 0 5 -12 -7 -27 -28 -14
-20 -27 -36 -29 -34 -4 3 30 98 44 124 7 12 12 29 12 37 0 34 23 65 54 72 37
8 46 19 40 53 -9 52 -10 53 -79 49 l-65 -3 0 46 c0 25 3 49 8 53 4 4 7 37 8
72 1 61 0 64 -23 64 -18 0 -23 6 -23 24 0 17 -9 28 -32 39 -40 19 -48 15 -48
-29 0 -32 -2 -34 -35 -34 l-35 0 0 56 c0 43 -4 60 -17 70 -15 10 -21 10 -35
-3 -10 -9 -18 -22 -18 -30 0 -8 -4 -11 -10 -8 -6 4 -10 -12 -10 -39 0 -46 0
-46 -35 -46 -31 0 -35 3 -35 25 0 14 -6 28 -14 31 -24 9 -56 -15 -56 -42 0
-38 -19 -19 -26 27 -6 33 -10 40 -28 37 -17 -2 -22 -11 -24 -49 -2 -32 2 -51
12 -62 19 -19 11 -76 -13 -94 -13 -9 -21 -6 -42 20 l-26 31 -15 -63 -16 -63
35 -15 c20 -8 55 -29 78 -46 42 -32 42 -33 48 -106 5 -68 8 -77 43 -112 21
-21 35 -41 33 -44 -3 -2 -25 19 -50 48 -74 88 -171 168 -185 154 -4 -3 -9 -26
-11 -52 -7 -58 -19 -57 -28 3 -7 45 -8 46 -19 22 -6 -14 -18 -32 -26 -41 -8
-9 -22 -25 -30 -37 -13 -20 -16 -20 -31 -6 -16 14 -19 14 -31 -8 -7 -13 -22
-52 -34 -87 l-21 -64 -20 54 c-12 30 -24 74 -28 99 -3 24 -14 58 -24 75 -18
29 -35 92 -88 322 -14 62 -29 110 -33 108 -3 -2 0 -57 6 -122 7 -65 12 -165
12 -223 l-1 -105 -7 75 c-6 77 -22 130 -39 130 -8 0 -36 166 -40 238 -1 7 -17
-3 -36 -23 -30 -30 -42 -35 -81 -35 -39 0 -51 5 -80 34 -31 31 -34 40 -34 91
0 64 20 107 57 124 38 18 92 13 125 -11 l30 -21 -6 99 c-4 54 -7 125 -8 156
-2 52 -5 58 -29 68 -65 27 -91 87 -77 175 16 103 98 175 203 175 59 0 59 0 35
17 -33 22 -70 65 -70 80 0 6 -6 13 -12 16 -10 3 -10 7 0 20 11 13 10 25 -2 69
-8 29 -17 72 -20 96 -8 52 5 54 56 12 52 -43 73 -50 346 -120 l242 -63 10 -37
c6 -21 19 -49 31 -64 19 -24 26 -26 95 -26 57 0 76 -3 80 -15 9 -24 -15 -45
-51 -45 -31 0 -33 -2 -39 -46 -3 -26 -6 -80 -6 -120 l0 -74 29 0 c22 0 31 6
39 28 26 66 34 106 30 148 -3 40 -1 44 19 44 30 0 40 20 18 36 -17 13 -17 17
13 82 19 41 34 92 37 125 4 49 2 57 -15 62 -11 4 -20 11 -20 16 0 5 -7 9 -15
9 -8 0 -15 5 -15 10 0 6 -7 10 -15 10 -8 0 -14 -6 -13 -12 2 -7 -6 -13 -17
-13 -11 0 -21 6 -21 13 -1 6 -2 18 -3 26 -1 16 -31 49 -37 43 -3 -2 0 -16 5
-30 9 -22 8 -25 -7 -20 -9 3 -21 9 -27 12 -5 3 -17 6 -25 8 -8 1 -66 55 -129
120 -108 110 -169 163 -191 163 -6 0 -10 5 -10 10 0 6 -11 15 -25 20 -13 5
-32 24 -41 42 -34 68 -89 106 -158 110 -46 2 -50 8 -24 36 l23 26 -30 -18
c-16 -10 -45 -30 -64 -44 l-33 -25 -89 89 c-48 48 -86 91 -83 96 10 16 -18 38
-50 38 -20 0 -26 3 -18 8 9 6 1 21 -33 54 -47 48 -57 70 -27 67 9 -1 23 -1 30
0 15 1 16 31 1 31 -21 0 3 20 34 28 20 6 31 14 28 23 -2 8 -3 27 -3 43 1 27
-1 28 -39 23 -47 -6 -49 2 -8 32 22 16 28 26 19 31 -6 4 -11 9 -9 11 1 2 -6
25 -16 52 -13 36 -21 45 -30 37 -10 -8 -13 -3 -13 25 0 19 4 33 8 30 5 -3 6 5
2 17 -5 21 -4 22 13 8 11 -8 30 -26 43 -40 21 -23 22 -23 13 -3 -14 27 -14 36
-1 28 5 -3 15 13 21 36 10 31 10 45 1 60 -19 30 3 65 41 66 85 1 97 5 113 37
9 17 25 69 35 116 10 46 30 104 43 130 13 25 26 55 30 68 l7 22 -33 -20 -34
-20 -18 49 c-15 43 -22 50 -51 55 -22 5 -32 11 -29 20 6 17 -22 41 -31 26 -8
-13 -25 -13 -25 0 0 6 7 10 16 10 9 0 14 5 12 12 -8 23 -27 19 -53 -11 -56
-62 -143 -56 -228 15 -16 13 -35 24 -42 24 -23 0 -36 37 -29 78 8 42 36 87 66
103 26 14 37 3 14 -14 -17 -12 -16 -15 8 -38 14 -13 26 -32 26 -42 0 -20 17
-29 60 -31 16 -1 32 -5 36 -9 4 -4 15 -7 25 -7 10 0 34 -9 54 -20 42 -23 75
-26 75 -6 0 8 10 22 22 30 30 21 48 4 48 -45 0 -44 10 -52 63 -55 35 -2 37 -1
20 12 -16 12 -16 13 -1 14 9 0 20 -5 23 -10 4 -6 12 -7 18 -3 7 4 22 6 35 4
57 -7 120 114 106 204 -4 32 -2 49 11 69 26 39 7 94 -46 140 -77 65 -81 66
-352 66 l-246 0 -85 -82 c-48 -46 -86 -88 -86 -95 0 -6 22 11 48 39 31 33 49
45 49 34 0 -9 -4 -16 -9 -16 -4 0 -7 -4 -5 -8 6 -22 -97 -132 -111 -117 -2 2
3 26 12 53 24 71 78 143 128 169 l43 22 -37 1 c-35 0 -39 -4 -87 -75z m447
-109 c15 -8 41 -29 59 -48 l32 -33 -29 -49 c-26 -46 -29 -48 -32 -24 -2 22
-19 34 -97 75 -71 36 -95 53 -97 71 -4 21 -1 22 67 22 41 0 81 -6 97 -14z
m-1768 -296 c17 -17 20 -33 20 -97 0 -75 -1 -79 -27 -90 -56 -26 -60 -21 -68
76 -8 97 2 131 35 131 11 0 29 -9 40 -20z m445 -160 c-3 -10 -1 -21 5 -25 25
-15 5 -98 -34 -144 -15 -17 -17 -25 -8 -28 16 -6 15 -35 -3 -59 -10 -13 -17
-15 -22 -8 -5 6 -18 13 -31 17 -18 4 -21 3 -13 -7 16 -19 3 -26 -26 -15 -13 5
-44 9 -69 9 -24 0 -45 5 -45 10 -1 6 -2 15 -3 20 -1 6 10 16 24 23 29 15 29
53 2 73 -15 11 -14 13 8 22 35 13 64 48 56 67 -3 9 -2 13 4 10 6 -3 10 -1 10
5 0 6 4 9 9 5 5 -3 12 -1 16 5 3 5 15 10 26 10 10 0 19 6 19 13 0 26 21 36 51
25 22 -8 28 -15 24 -28z m496 -1495 c4 -44 103 -331 120 -345 11 -10 38 -88
32 -94 -4 -3 -1 -6 6 -6 7 0 10 -4 6 -10 -3 -5 -1 -17 4 -27 5 -10 19 -67 31
-128 12 -60 29 -127 36 -149 26 -71 -13 -105 -55 -48 l-20 27 -1 -48 c0 -27
-11 -81 -24 -120 -14 -40 -28 -89 -32 -109 -6 -34 -4 -38 15 -38 20 0 21 -5
21 -104 l0 -103 50 5 c41 4 50 2 50 -11 0 -43 -9 -47 -101 -47 -84 0 -89 -1
-93 -22 -21 -100 -56 -293 -61 -339 l-7 -55 55 -43 c31 -23 63 -53 72 -67 8
-13 22 -24 29 -24 7 0 19 -7 26 -15 11 -13 10 -14 -4 -9 -14 5 -15 3 -6 -21
18 -47 13 -65 -17 -65 -22 0 -25 -2 -13 -10 11 -7 12 -12 4 -20 -8 -8 -14 -7
-24 5 -7 8 -9 15 -4 15 5 1 -5 7 -21 14 -25 11 -30 18 -29 47 1 19 -1 39 -5
44 -16 28 -10 45 17 46 l27 1 -32 14 c-17 7 -37 21 -45 31 -7 10 -22 25 -32
33 -17 14 -18 13 -12 -7 6 -18 4 -21 -14 -16 -18 5 -17 1 9 -24 32 -33 51 -97
32 -116 -8 -8 -28 -7 -75 2 -36 7 -69 10 -74 7 -11 -7 -37 45 -45 91 -5 28 -3
33 21 42 25 9 25 9 -15 10 -32 1 -45 6 -53 21 -9 17 -13 18 -24 8 -6 -7 -15
-21 -18 -30 -4 -9 -19 -18 -35 -21 -20 -3 -16 -4 15 -6 24 0 41 -5 38 -10 -3
-5 5 -34 19 -65 l25 -56 -23 -1 c-52 -3 -123 4 -134 13 -7 6 -15 26 -19 47 -4
20 -13 45 -20 56 -8 11 -14 31 -15 45 0 14 -7 -3 -14 -38 -9 -42 -11 -71 -5
-88 15 -39 -2 -66 -56 -86 l-49 -18 42 5 c50 6 67 -10 20 -19 -17 -4 -50 -15
-72 -25 l-40 -19 63 -1 c48 -1 70 4 87 18 18 13 21 21 12 30 -15 15 -7 14 36
-4 35 -14 70 -55 47 -55 -5 0 -10 8 -11 18 0 12 -2 13 -6 3 -3 -8 3 -21 15
-30 11 -9 23 -26 26 -38 6 -20 5 -21 -18 -10 -14 7 -26 17 -26 24 0 7 -14 10
-36 8 -28 -3 -34 0 -30 11 3 9 -1 14 -14 14 -11 0 -20 -6 -20 -14 0 -15 -59
-32 -142 -40 -31 -3 -64 -9 -73 -13 -15 -5 -16 -3 -5 17 7 12 30 29 51 38 45
17 47 24 18 51 l-22 20 34 30 c31 29 36 53 7 35 -17 -11 -58 -12 -58 -2 0 17
-50 -25 -56 -47 -4 -16 -12 -21 -29 -20 -18 2 -27 -5 -40 -36 -17 -36 -32 -45
-46 -25 -6 7 -5 36 3 92 1 7 21 21 45 32 l43 20 11 -21 c11 -19 13 -18 48 20
20 21 47 47 61 56 15 11 19 17 10 17 -8 1 1 9 20 19 19 10 76 43 125 74 83 51
115 64 240 92 6 2 34 72 63 156 51 151 58 205 26 192 -9 -3 -14 1 -14 12 0 13
-5 15 -17 9 -10 -4 -36 -9 -58 -11 -99 -9 -156 93 -109 193 22 46 65 68 120
61 l43 -4 -5 66 c-3 36 -13 96 -22 134 l-16 67 -48 0 c-37 0 -50 4 -58 19 -12
23 -13 310 -1 329 5 8 35 16 69 19 l60 6 12 64 c13 79 43 160 100 272 61 121
98 168 101 126z m-733 -242 c-59 -71 -75 -88 -103 -117 -16 -17 -47 -52 -67
-78 l-38 -46 0 -115 c0 -132 11 -174 47 -183 74 -19 112 39 120 183 6 108 14
133 42 133 33 0 40 -59 20 -180 -26 -162 -126 -241 -227 -180 -49 30 -72 88
-72 185 l0 80 -22 -34 c-13 -18 -38 -51 -56 -72 l-33 -38 40 -37 c45 -40 49
-55 25 -75 -17 -14 -17 -14 -78 35 l-37 29 -27 -25 c-33 -30 -78 -58 -92 -58
-16 0 -40 62 -30 80 5 8 9 74 9 145 1 90 5 132 14 138 37 25 189 -25 219 -73
22 -35 38 -4 38 75 0 59 4 75 20 90 17 15 23 16 50 5 28 -12 30 -16 24 -44 -3
-17 -11 -34 -16 -37 -7 -4 -6 -9 1 -13 5 -4 17 7 25 23 9 16 20 31 25 33 5 1
26 23 46 48 89 107 129 150 143 150 10 0 7 -8 -10 -27z m317 -213 c20 -7 26
-16 23 -33 -3 -21 -7 -22 -83 -19 -44 1 -85 -1 -91 -5 -6 -4 -13 -30 -16 -56
l-6 -49 82 7 c69 6 84 4 95 -9 24 -29 -3 -43 -94 -51 l-85 -7 0 -54 0 -54 90
0 c89 0 90 0 90 -25 0 -31 -26 -38 -124 -33 -116 5 -116 5 -116 213 0 94 3
175 7 178 10 11 199 8 228 -3z m1139 -26 c9 -25 -12 -44 -49 -44 l-33 0 -7
-65 c-4 -36 -4 -89 -1 -119 l7 -55 42 -3 c37 -3 42 -6 42 -28 0 -21 -5 -26
-32 -28 -37 -4 -43 -27 -20 -72 17 -34 20 -82 5 -92 -10 -6 -9 -12 5 -22 14
-11 15 -15 3 -25 -11 -9 -15 -8 -20 4 -6 16 -56 21 -56 5 0 -5 12 -10 28 -10
l27 -1 -24 -19 c-14 -12 -18 -20 -10 -20 10 -1 9 -4 -3 -13 -15 -12 -15 -14 3
-25 25 -16 28 -109 4 -118 -21 -8 -19 -22 10 -77 l25 -47 -42 0 c-38 0 -46 4
-65 35 -13 19 -23 39 -23 45 0 5 -4 10 -10 10 -5 0 -10 -20 -10 -45 0 -45 0
-45 -35 -45 l-35 0 0 55 c0 30 -4 55 -10 55 -5 0 -11 8 -11 18 -1 16 -2 16 -6
0 -3 -14 -15 -18 -49 -18 -42 0 -44 -1 -44 -30 0 -29 1 -30 50 -30 47 0 50 -2
50 -25 0 -25 -1 -25 -85 -25 l-85 0 0 133 0 132 45 0 c52 0 64 17 20 26 -28 6
-29 7 -8 14 13 4 21 10 19 14 -3 4 -7 30 -11 59 -4 41 -2 54 9 58 14 5 13 8
-1 22 -14 15 -13 19 23 50 34 29 45 33 86 30 25 -2 44 0 42 4 -3 4 0 17 6 28
8 14 21 20 45 20 l35 0 0 120 0 120 -29 0 c-37 0 -59 24 -41 45 19 23 215 22
224 -1z m-1474 -632 c21 -17 22 -19 5 -35 -13 -13 -20 -15 -30 -7 -19 16 -70
8 -70 -10 0 -8 15 -18 37 -23 122 -29 114 -153 -11 -165 -38 -3 -57 0 -81 15
-30 19 -30 20 -12 37 16 14 24 15 45 5 33 -15 79 -4 75 17 -2 9 -26 25 -54 35
-60 23 -83 55 -68 97 5 14 21 32 34 39 37 19 104 16 130 -5z m238 -15 c36 -36
42 -127 13 -175 -38 -59 -120 -71 -173 -23 -27 24 -32 36 -35 87 -5 66 18 117
60 134 39 17 107 5 135 -23z m1852 -746 c0 -5 -9 -30 -21 -56 -17 -39 -24 -46
-42 -41 -21 5 -21 4 2 -15 28 -23 24 -23 -47 -3 -86 25 -209 14 -438 -39 -33
-8 -71 -20 -83 -27 -13 -6 -34 -10 -47 -7 -13 2 -24 0 -24 -4 0 -5 -7 -9 -16
-9 -8 0 -12 -4 -9 -10 3 -5 0 -10 -8 -10 -8 0 -22 -9 -32 -20 -31 -34 -80 -44
-125 -26 -34 13 -38 14 -34 1 9 -22 -9 -18 -24 5 -7 12 -17 18 -22 15 -5 -3
-13 3 -19 12 -9 17 -10 17 -17 0 -6 -17 -8 -17 -30 4 -32 30 -30 39 7 39 17 0
28 4 24 10 -15 24 16 7 38 -21 l23 -30 105 39 c57 22 134 49 171 61 100 30
288 54 409 52 106 -2 107 -2 140 28 50 46 119 76 119 52z m181 -19 c24 -16 65
-39 91 -51 49 -25 58 -44 58 -117 0 -48 -30 -45 -94 8 -27 23 -51 38 -53 33
-2 -6 -8 -17 -13 -25 -9 -13 -12 -12 -23 5 -32 52 -45 122 -31 159 8 21 13 21
65 -12z m-1746 -113 c5 -5 10 -53 12 -106 1 -52 5 -98 8 -101 15 -16 1 -21
-23 -8 -27 14 -52 51 -59 91 -2 10 -7 22 -11 25 -6 4 -31 54 -43 85 -2 6 12
15 31 22 35 12 67 9 85 -8z m208 -20 c29 -13 36 -29 12 -29 -19 0 -19 -11 0
-36 20 -26 21 -173 1 -199 -38 -53 -100 52 -140 238 -4 15 -13 27 -22 27 -9 0
-12 5 -8 11 8 14 119 6 157 -12z m1816 -133 c25 -19 39 -43 61 -106 30 -87 59
-137 117 -200 71 -80 84 -37 23 75 -36 66 -39 76 -29 102 l12 28 10 -25 c5
-14 40 -50 77 -80 54 -44 69 -63 78 -97 11 -40 48 -73 82 -73 6 0 17 -5 24
-12 10 -10 10 -17 0 -38 -7 -14 -16 -47 -21 -75 l-8 -50 -65 -3 c-36 -2 -116
1 -178 7 -92 8 -121 8 -154 -4 -39 -13 -43 -13 -75 12 -18 14 -57 55 -85 90
-45 57 -50 68 -39 84 6 11 21 75 32 142 23 141 31 170 62 214 26 39 33 40 76
9z m-2243 -45 c55 -16 124 -40 154 -54 30 -13 70 -28 87 -31 38 -9 83 -58 83
-91 0 -13 3 -31 7 -41 4 -12 3 -15 -5 -10 -7 4 -12 2 -12 -3 0 -22 -31 -10
-40 14 -10 26 -45 46 -67 38 -7 -3 -16 2 -19 11 -4 11 -13 14 -29 10 -13 -3
-37 2 -54 11 -39 20 -228 55 -295 55 -46 0 -144 34 -146 51 0 7 76 49 108 59
53 16 130 10 228 -19z m834 -87 c52 -15 88 -34 121 -61 16 -13 15 -16 -8 -39
-16 -16 -35 -25 -52 -23 -14 1 -34 -2 -45 -6 -11 -5 -26 -3 -37 4 -15 9 -19 8
-19 -2 0 -20 -81 -40 -114 -28 -37 15 -31 17 -83 -34 -25 -25 -49 -45 -54 -45
-16 0 -9 19 13 34 16 12 18 16 7 20 -51 15 -50 15 -47 58 3 38 6 43 25 41 14
-2 21 2 18 10 -6 14 68 50 146 71 69 19 66 19 129 0z m153 -381 c-4 -10 -9
-11 -19 -2 -11 9 -14 7 -14 -10 0 -11 5 -21 10 -21 19 0 10 -21 -22 -52 -18
-17 -25 -28 -16 -25 13 4 16 2 12 -11 -5 -16 -4 -16 8 -1 9 12 23 15 48 11 30
-4 33 -3 23 10 -10 11 -10 17 -1 26 15 15 32 16 23 2 -3 -5 1 -10 11 -10 11 0
15 -6 11 -20 -3 -11 -1 -20 4 -20 5 0 9 -7 9 -15 0 -8 -4 -15 -10 -15 -6 0 -6
-9 0 -25 7 -18 6 -25 -2 -25 -8 0 -8 -3 -2 -9 5 -5 41 -11 79 -12 39 -1 81 -4
95 -7 l25 -6 -25 -7 c-24 -7 -24 -7 -2 -8 31 -1 28 -19 -5 -24 -22 -3 -19 -4
11 -6 63 -2 39 -9 -74 -21 -93 -9 -167 -18 -194 -23 -5 -1 -14 18 -20 43 l-10
45 -6 -70 c-7 -78 -18 -114 -30 -95 -4 7 -4 27 1 44 13 48 5 170 -13 198 -16
25 -15 28 32 85 6 7 12 25 14 41 4 39 11 48 34 48 12 0 18 -5 15 -13z m-3117
-106 c28 -34 52 -56 60 -53 16 6 29 -28 25 -69 -5 -62 -7 -64 -75 -61 -55 1
-66 5 -89 30 -34 36 -34 53 -2 78 14 11 25 27 25 35 0 9 -3 13 -7 10 -10 -11
-32 26 -33 54 0 59 39 49 96 -24z m1167 -20 c-3 -23 0 -37 11 -46 9 -7 16 -24
16 -36 0 -18 -11 -26 -59 -44 -32 -12 -65 -28 -72 -37 -7 -8 -12 -38 -12 -65
0 -62 -30 -93 -75 -79 -40 12 -45 12 -66 11 -31 -2 -8 -16 66 -41 38 -13 77
-34 89 -46 21 -22 21 -22 -41 2 -46 19 -80 25 -136 26 l-75 0 28 24 c15 13 32
24 38 24 5 0 4 5 -2 11 -11 11 -63 2 -63 -12 0 -5 -9 -9 -20 -9 -17 0 -19 4
-14 28 15 59 49 114 98 159 47 42 255 163 283 163 8 0 10 -11 6 -33z m-1551
-77 c15 -26 23 -30 60 -30 24 0 49 -4 57 -9 8 -5 26 -5 43 1 37 13 58 -2 38
-27 -12 -14 -15 -14 -30 0 -20 18 -34 20 -23 3 12 -20 12 -39 0 -31 -6 4 -21
8 -34 9 -13 2 -32 6 -44 9 -18 6 -19 5 -10 -13 23 -43 15 -49 -61 -51 -40 -1
-101 -5 -135 -10 -59 -7 -62 -6 -73 17 -12 28 -13 27 18 36 18 6 22 3 22 -13
0 -32 15 -33 91 -11 39 12 77 19 83 17 7 -3 19 -1 27 5 11 8 11 9 -2 5 -9 -3
-25 1 -36 8 -11 7 -35 15 -54 17 l-34 4 30 14 c17 7 33 13 38 12 4 -1 7 3 7 8
0 6 -6 10 -14 10 -8 0 -21 3 -29 6 -10 3 -17 -2 -20 -13 -3 -12 -5 -9 -6 10
-1 27 5 31 48 27 14 -1 21 2 17 9 -4 6 -4 11 1 11 4 0 16 -14 25 -30z m4215
-496 c36 -27 39 -43 5 -25 -23 12 -34 -4 -27 -40 2 -12 2 -19 -2 -16 -3 3 -12
-1 -20 -9 -11 -10 -31 -14 -62 -12 -41 3 -46 6 -49 29 -3 22 -7 25 -28 21 -17
-3 -24 0 -24 12 0 9 -4 16 -8 16 -5 0 -19 9 -32 20 l-23 20 79 -5 c43 -3 93
-1 109 4 44 14 45 13 82 -15z m-66 -300 c23 -20 69 -105 69 -126 0 -7 -10 -19
-22 -27 -19 -12 -23 -11 -39 10 -10 13 -33 42 -53 64 -20 22 -36 48 -36 57 0
9 -3 24 -6 33 -5 13 0 15 30 12 19 -2 45 -12 57 -23z m-3551 -4 c44 0 48 -2
53 -29 4 -16 21 -50 38 -75 25 -35 39 -46 60 -46 22 0 29 7 44 45 9 26 22 44
29 42 12 -4 38 -127 26 -127 -10 0 10 -92 24 -109 6 -8 11 -55 11 -116 0 -82
-3 -107 -17 -121 -10 -12 -14 -29 -11 -44 2 -14 0 -37 -5 -51 -9 -23 -14 -25
-53 -20 l-44 6 -10 55 c-12 61 -9 60 -105 43 l-44 -8 27 -18 c23 -15 25 -20
15 -37 -10 -16 -25 -20 -73 -22 l-60 -2 53 -3 c44 -3 52 -7 48 -21 -33 -103
-46 -183 -45 -265 1 -89 -2 -120 -14 -162 -3 -11 -8 -32 -11 -47 -7 -29 -29
-37 -43 -15 -6 10 -32 11 -118 5 -60 -4 -181 -7 -267 -6 -86 1 -160 -1 -164
-5 -4 -4 112 -7 258 -7 272 0 335 -7 324 -37 -3 -8 -9 -39 -12 -68 -4 -29 -10
-58 -13 -64 -5 -7 -71 -13 -182 -16 -95 -3 -195 -8 -221 -11 -85 -11 -40 -24
85 -25 67 -1 167 -4 222 -8 113 -7 108 -1 88 -101 -8 -42 -11 -46 -56 -61 -59
-19 -69 -29 -31 -30 28 -1 28 -1 -6 -9 -43 -10 -352 -16 -367 -7 -6 4 -14 27
-17 51 -12 78 -73 118 -122 81 -10 -8 -33 -15 -50 -15 -36 0 -54 -16 -54 -47
0 -23 -23 -32 -34 -14 -3 5 -26 14 -51 20 -25 6 -45 15 -44 19 0 4 14 18 32
32 17 14 28 19 24 13 -6 -9 -3 -11 7 -7 21 8 20 22 -1 27 -10 2 -1 2 19 0 35
-4 188 43 188 58 0 8 -124 49 -148 49 -9 0 -31 9 -49 19 -17 11 -51 25 -75 31
-24 7 -46 17 -50 24 -4 6 -8 37 -8 69 0 54 1 57 24 57 14 0 27 -4 30 -9 3 -4
26 -16 51 -25 43 -17 47 -17 90 -1 24 10 42 21 40 25 -3 5 -31 16 -63 25 -31
9 -69 23 -84 31 -14 8 -36 14 -48 14 -20 0 -22 3 -16 48 12 84 8 127 -14 196
-17 51 -14 59 25 52 19 -4 47 -13 62 -21 31 -17 53 -19 53 -7 0 5 -33 19 -74
32 -61 19 -75 27 -79 47 -6 32 2 34 56 18 36 -11 109 -13 314 -12 148 1 277 6
287 11 17 8 18 6 12 -20 -4 -16 -13 -41 -21 -56 -7 -16 -10 -28 -6 -28 11 0 1
-102 -10 -115 -16 -16 -10 -23 35 -36 40 -11 45 -17 51 -48 8 -43 23 -63 39
-54 6 3 2 -3 -8 -15 l-19 -22 44 0 44 1 -24 19 -23 20 22 0 c20 0 22 4 18 45
-5 41 -3 45 24 54 35 13 36 28 1 44 -16 6 -31 16 -35 22 -12 16 -9 105 3 105
8 0 9 4 0 13 -6 8 -8 17 -4 20 3 4 1 7 -7 7 -18 0 -6 76 31 197 57 185 58 190
50 266 -5 40 -5 76 0 82 5 5 9 18 9 30 0 11 6 45 14 75 7 30 17 68 20 83 5 21
11 27 22 23 9 -3 37 -6 64 -6z m-882 -133 c24 -99 31 -145 26 -178 -5 -35 -1
-57 15 -94 11 -26 21 -56 21 -67 0 -16 7 -19 48 -18 26 1 65 -2 87 -5 32 -5
46 -2 65 13 25 20 25 21 22 179 -1 87 -5 166 -8 175 -3 10 -16 21 -30 24 -26
7 -27 10 -18 67 6 36 8 37 50 37 24 0 44 -4 44 -8 0 -57 33 -368 40 -382 15
-27 12 -60 -5 -66 -33 -13 -12 -21 51 -20 l66 1 24 64 c13 35 24 79 24 99 0
22 7 40 18 48 14 10 17 25 14 83 -2 72 10 96 22 41 8 -41 -2 -117 -21 -162
-13 -30 -13 -49 -4 -119 12 -88 15 -226 5 -216 -3 3 -38 -6 -78 -20 -70 -25
-74 -26 -256 -20 -159 6 -312 25 -342 43 -10 6 -11 58 -1 67 3 4 11 3 17 -2 6
-5 20 -10 31 -11 61 -7 61 14 0 29 -44 11 -45 12 -45 53 0 23 5 70 11 105 9
54 9 69 -6 106 -10 23 -21 73 -25 112 -7 59 -5 77 13 122 21 50 24 53 57 53
l35 0 33 -133z m5918 96 c-3 -21 -12 -65 -20 -98 -8 -37 -10 -69 -5 -83 5 -13
9 -38 9 -55 l0 -32 -55 3 c-35 3 -55 0 -55 -7 0 -7 23 -11 60 -11 l60 0 0 -56
0 -56 -57 5 c-55 4 -104 14 -201 39 -33 8 -42 15 -37 27 4 9 9 28 12 44 7 33
18 35 34 5 16 -31 28 -38 64 -38 27 0 33 6 52 53 13 28 25 77 27 107 2 30 9
85 16 123 l12 67 45 0 46 0 -7 -37z m262 -88 c-2 -69 -6 -125 -10 -125 -5 0
-8 -4 -8 -10 0 -5 5 -9 11 -7 14 3 31 -51 25 -76 -3 -11 -2 -16 2 -12 3 3 12
-18 18 -47 7 -29 12 -53 11 -54 -1 0 -39 2 -84 4 -79 4 -83 5 -83 28 0 13 6
43 14 66 8 24 17 61 20 83 13 74 26 105 47 105 10 0 19 5 19 10 0 6 -11 10
-24 10 -20 0 -25 6 -28 38 -3 20 -3 54 0 75 4 35 7 37 39 37 l34 0 -3 -125z
m282 68 c6 -32 16 -72 21 -89 5 -17 7 -38 4 -46 -4 -9 0 -18 9 -21 9 -4 16
-14 16 -22 0 -10 -5 -13 -12 -9 -8 5 -9 2 -5 -9 3 -10 2 -17 -3 -17 -5 0 -12
-22 -16 -49 -5 -40 -11 -51 -28 -54 -16 -3 -14 -5 7 -6 21 -1 28 -5 25 -18 -2
-10 -12 -19 -23 -21 -25 -5 -55 -31 -55 -49 0 -7 -4 -13 -10 -13 -13 0 -12 45
5 170 8 58 15 108 15 112 0 3 9 4 20 1 11 -3 28 -2 37 3 14 6 9 9 -21 13 -39
6 -40 8 -58 66 -10 33 -18 72 -18 88 0 25 3 27 39 27 l40 0 11 -57z m-816
-369 c12 -1 76 -5 144 -9 121 -8 122 -8 122 -33 0 -24 -2 -24 -55 -20 -31 3
-58 1 -61 -4 -3 -4 22 -8 55 -8 l61 0 0 -67 c0 -96 -2 -97 -91 -78 -41 9 -81
20 -90 25 -20 11 -67 6 -81 -8 -8 -8 -7 -13 5 -18 31 -11 17 -24 -26 -24 l-43
0 -2 43 c-1 23 -3 51 -5 61 -2 17 5 19 73 17 41 -1 85 -5 98 -8 25 -6 31 12 6
21 -9 3 -51 6 -93 6 -43 0 -80 3 -83 6 -15 14 6 44 31 45 26 0 26 0 4 11 -13
6 -23 19 -23 28 0 21 10 31 23 23 6 -4 20 -8 31 -9z m568 -149 c9 -10 -16 -97
-29 -102 -7 -3 -47 -2 -88 2 l-75 7 0 33 c0 53 20 65 109 65 43 0 80 -2 83 -5z
m-5128 -217 c33 -123 32 -121 23 -197 -9 -65 -12 -71 -41 -71 -20 0 -23 6 -26
48 -8 103 -4 154 14 164 15 8 14 11 -6 28 -20 17 -21 21 -8 30 21 13 40 12 44
-2z m1167 -133 c18 -57 37 -101 42 -98 5 3 8 0 6 -6 -3 -7 -8 -12 -12 -12 -4
1 -20 1 -36 1 -25 0 -29 3 -25 23 2 12 2 17 -1 12 -3 -6 -26 -9 -51 -7 -37 3
-49 0 -66 -17 -17 -19 -47 -22 -65 -7 -1 1 12 50 30 109 l32 107 57 0 57 0 32
-105z m441 -185 c94 0 118 -3 118 -14 0 -11 -24 -14 -117 -15 -131 -2 -166
-10 -52 -13 67 -1 70 -2 29 -8 l-45 -7 55 -3 c30 -2 63 -4 73 -3 12 0 17 -8
17 -29 l0 -28 -650 0 c-427 0 -650 -3 -650 -10 0 -5 -3 -10 -7 -10 -5 0 -8 32
-8 70 l-1 70 471 3 c258 2 510 2 559 0 49 -2 142 -3 208 -3z m2410 -12 c-17
-17 11 -16 -739 -17 -370 -1 -673 -4 -673 -8 0 -5 246 -7 548 -6 301 0 549 -3
552 -8 3 -4 39 -14 80 -20 41 -7 77 -15 80 -19 3 -4 32 -12 65 -17 44 -8 -131
-11 -637 -12 -633 -1 -698 -3 -706 -17 -6 -11 -10 8 -11 60 l-2 76 728 0 c571
0 724 -3 715 -12z m-2994 -260 c-4 -10 -57 -14 -204 -18 -163 -4 -204 -8 -229
-22 -37 -21 -33 -22 29 -3 35 11 97 15 213 15 l164 0 -3 -47 -3 -48 -140 -5
c-146 -5 -162 -10 -207 -57 -34 -36 -48 -73 -48 -128 0 -55 14 -92 48 -129 50
-53 94 -66 230 -66 l122 0 0 -50 0 -50 -122 -1 c-68 0 -140 -3 -161 -5 -55 -7
-146 22 -192 61 -22 18 -36 37 -32 41 4 5 11 4 15 -2 4 -6 14 -13 23 -16 12
-5 16 0 14 20 -1 15 -3 30 -3 35 -3 11 -37 8 -49 -4 -17 -17 -38 27 -22 47 10
12 9 13 -3 9 -12 -5 -17 5 -24 42 -16 94 5 192 53 245 9 10 13 21 9 26 -19 19
-71 -88 -85 -177 -14 -87 -21 -88 -21 -4 0 58 5 80 31 132 43 87 83 123 155
144 88 25 86 25 272 26 135 1 173 -2 170 -11z m302 -3 c-9 -11 -34 -15 -96
-15 l-84 0 2 -282 2 -283 7 220 c3 121 7 246 8 278 l1 57 69 0 70 0 -1 -37
c-1 -21 0 -127 1 -236 1 -194 1 -197 21 -187 12 6 77 9 167 8 107 -2 142 -6
128 -13 -16 -8 -20 -20 -20 -65 l0 -55 -223 -2 c-154 -1 -228 -6 -238 -14 -12
-10 -14 34 -14 315 l0 326 106 0 c94 0 105 -2 94 -15z m964 -16 c112 -37 193
-126 209 -231 8 -51 -7 -48 -22 5 -19 62 -57 123 -96 153 -20 15 -38 25 -40
22 -3 -3 12 -16 32 -29 22 -14 47 -44 63 -74 22 -43 25 -62 25 -145 0 -78 -4
-102 -22 -136 -68 -128 -244 -186 -488 -162 -61 6 -138 35 -130 48 3 4 -4 15
-15 25 -13 11 -20 14 -20 6 0 -17 -16 -5 -42 32 -12 18 -15 26 -7 20 13 -11
16 -8 16 18 0 16 -3 25 -7 19 -5 -8 -9 -6 -14 5 -10 26 -7 42 5 25 9 -13 10
-13 6 0 -2 8 -11 14 -20 12 -12 -2 -17 10 -22 53 -14 105 20 207 92 278 81 82
333 110 497 56z m456 -5 c77 -25 162 -79 200 -127 21 -27 15 -38 -8 -15 -6 6
-14 9 -17 7 -2 -3 30 -41 71 -85 42 -43 72 -70 68 -59 -5 11 -10 86 -12 168
l-3 147 108 0 c105 -1 107 -1 87 -18 -21 -18 -21 -25 -22 -305 -1 -158 -4
-292 -7 -297 -3 -6 -36 -10 -72 -10 -45 0 -72 -5 -83 -15 -15 -14 -19 -10 -41
37 -13 29 -43 77 -67 106 -38 47 -40 51 -15 36 l28 -17 -27 28 c-15 15 -37 29
-50 31 -13 1 -26 3 -29 3 -4 1 -9 10 -12 21 -3 11 -14 20 -25 20 -37 0 -47
-27 -51 -142 l-3 -109 -74 2 c-46 1 -79 -3 -88 -10 -13 -11 -15 28 -16 313 l0
326 42 -6 c24 -4 77 -17 118 -30z m1258 24 c-4 -10 -77 -14 -313 -16 -170 -1
-312 -6 -316 -10 -4 -4 -4 -135 0 -292 l8 -285 1 288 2 287 268 -1 c147 -1
254 -4 237 -7 l-30 -5 25 -7 c22 -7 21 -8 -11 -9 -36 -1 -56 -21 -43 -42 3 -5
-10 -10 -28 -11 -18 -1 14 -5 72 -8 84 -5 61 -6 -116 -8 l-222 -2 -6 -34 c-4
-19 -4 -52 0 -73 5 -35 9 -39 36 -41 27 -2 29 0 18 13 -11 13 6 15 155 15 148
0 166 -2 155 -15 -9 -11 -37 -16 -104 -17 l-91 -2 83 -3 82 -4 0 -34 0 -35
-162 3 -163 2 -3 -71 c-3 -87 -14 -83 193 -85 82 -1 161 -5 175 -10 14 -4 19
-8 12 -8 -7 -1 -11 -5 -7 -10 3 -5 -2 -16 -10 -24 -11 -12 -12 -17 -2 -21 6
-3 -18 -5 -56 -4 -37 1 -70 -2 -74 -5 -3 -4 40 -7 96 -7 98 0 103 1 98 20 -3
11 -1 20 4 20 5 0 9 -13 9 -30 l0 -30 -298 0 c-216 0 -301 -3 -310 -12 -6 -6
-13 -10 -16 -7 -2 2 -1 149 2 327 l5 322 324 0 c255 0 324 -3 321 -12z m-3234
-770 c9 -35 6 -56 -4 -30 -8 18 -17 22 -47 21 -30 -2 -32 -3 -11 -6 24 -4 30
-12 44 -61 9 -31 32 -109 52 -172 l37 -115 6 80 c5 66 24 150 65 288 5 15 20
17 129 17 68 0 126 -3 129 -8 2 -4 7 -25 11 -47 l6 -40 -15 33 c-8 17 -19 32
-24 32 -10 0 25 -126 71 -255 l24 -70 5 50 c5 48 16 92 59 238 l20 67 114 0
c69 0 115 -4 115 -10 0 -5 -11 -12 -25 -16 -14 -3 -25 -11 -25 -17 0 -11 -163
-531 -182 -579 -10 -27 -12 -28 -92 -28 -50 0 -87 -5 -94 -12 -17 -17 -27 -2
-26 44 1 28 -1 36 -8 27 -6 -10 -7 -7 -3 10 7 23 -20 101 -36 101 -13 0 -29
61 -30 114 l-1 51 -15 -35 c-9 -19 -37 -93 -63 -165 l-46 -130 -87 -5 c-80 -5
-102 0 -78 14 5 4 1 27 -9 53 -9 27 -53 162 -96 301 -61 196 -82 252 -95 252
-9 0 -22 7 -29 15 -11 13 3 15 118 15 126 0 130 -1 136 -22z m1266 14 c0 -4
-5 -13 -11 -19 -8 -8 -2 -38 21 -109 57 -177 150 -488 150 -501 0 -10 -20 -13
-77 -13 -56 0 -81 -4 -94 -16 -17 -15 -19 -13 -36 44 -13 44 -23 62 -38 66
-38 9 -246 9 -255 0 -5 -5 -16 -27 -23 -49 l-14 -40 -85 -5 c-52 -3 -92 -10
-102 -19 -16 -13 -17 -12 -11 15 4 16 50 170 103 342 l96 312 188 0 c103 0
188 -4 188 -8z m866 -19 c53 -28 101 -78 115 -120 16 -50 4 -52 -21 -3 -12 23
-24 40 -27 37 -2 -3 0 -14 6 -25 16 -30 13 -109 -5 -149 -9 -19 -32 -46 -51
-61 -47 -35 -58 -66 -36 -102 15 -26 63 -48 63 -29 0 5 -6 9 -14 9 -8 0 -18 5
-21 10 -4 7 64 10 196 10 157 0 200 -3 191 -12 -8 -8 -64 -13 -164 -15 -84 -2
-154 -6 -157 -8 -7 -7 279 -6 322 1 29 5 39 12 43 31 8 29 -11 76 -28 71 -7
-3 -25 11 -41 29 -16 18 -33 30 -38 27 -5 -3 -6 1 -3 9 3 8 1 18 -5 22 -6 3
-11 12 -11 18 0 7 4 6 11 -3 8 -12 9 -11 5 5 -3 11 -8 33 -12 50 -6 26 -8 27
-15 10 -6 -18 -8 -17 -18 10 -15 37 6 98 48 141 54 55 107 64 395 64 202 0
257 -3 254 -12 -4 -10 -73 -14 -286 -18 -223 -4 -284 -8 -294 -19 -11 -12 -10
-13 7 -5 11 5 136 10 278 12 l257 3 0 -71 0 -71 -182 1 c-101 1 -190 -1 -200
-5 -23 -9 -28 -40 -10 -67 8 -13 35 -44 59 -70 24 -26 48 -59 53 -73 15 -39
12 -112 -5 -146 -18 -33 -90 -89 -114 -88 -10 0 -7 4 8 10 38 15 18 21 -33 9
-26 -6 -51 -8 -56 -5 -5 3 -11 1 -15 -5 -4 -6 9 -10 32 -11 35 0 36 -1 13 -10
-15 -6 -139 -9 -315 -7 l-291 3 -48 45 c-55 52 -83 67 -46 24 14 -15 -7 -1
-45 33 -39 34 -77 73 -85 87 -7 14 -17 26 -22 26 -4 0 -8 -49 -8 -110 l0 -110
-92 0 c-71 0 -95 -4 -110 -17 -17 -16 -18 -5 -18 326 l0 342 273 -3 c257 -3
274 -4 313 -25z m954 -763 c117 0 170 -4 160 -10 -9 -6 -132 -10 -290 -11
-151 -1 -261 -5 -245 -9 20 -5 24 -8 10 -9 -11 -1 -27 -6 -35 -11 -12 -7 -9
-9 10 -8 14 1 45 1 70 -1 35 -2 41 -4 25 -11 -18 -8 -17 -9 8 -9 15 -1 27 -5
27 -11 0 -6 72 -10 197 -10 108 0 194 -2 192 -4 -8 -8 -883 -15 -2249 -18
l-1335 -3 1130 -5 1130 -5 -1125 -3 c-1279 -2 -1153 -12 -1162 86 l-5 52 1396
3 c768 2 1513 2 1656 0 143 -1 339 -3 435 -3z"/>
<path d="M3132 5698 c-30 -38 -25 -120 8 -138 13 -7 28 -7 47 1 19 7 29 7 31
0 10 -29 22 -5 21 42 -2 90 -8 102 -55 105 -24 1 -46 -3 -52 -10z"/>
<path d="M1728 2042 l-78 -3 0 -39 c0 -39 13 -53 23 -27 3 6 6 7 6 1 1 -12 59
-7 76 7 6 4 30 9 54 10 23 2 45 7 47 11 6 10 64 11 64 1 0 -5 19 -7 42 -6 24
2 59 3 78 2 19 0 41 0 48 0 6 0 37 1 68 1 30 1 61 -4 69 -10 10 -8 15 -8 20 0
4 7 36 10 86 9 52 -2 83 1 91 9 9 9 9 12 -3 13 -7 1 -3 5 11 9 25 8 -553 18
-702 12z"/>
<path d="M3281 1669 c-81 -17 -123 -78 -123 -178 -1 -72 24 -144 59 -173 10
-7 5 7 -11 34 -17 30 -26 57 -24 75 4 27 4 26 16 -12 24 -77 63 -105 147 -105
42 0 67 6 99 25 50 29 63 51 75 125 5 30 9 42 10 27 1 -18 5 -26 12 -21 17 10
5 102 -16 122 -16 16 -16 15 -1 -18 16 -34 13 -31 -29 33 -32 48 -143 82 -214
66z"/>
<path d="M3092 908 c-25 -58 -36 -86 -72 -191 -28 -84 -33 -106 -21 -101 9 4
53 9 99 12 57 3 82 8 79 16 -22 58 -62 201 -67 241 -6 49 -7 49 -18 23z"/>
<path d="M3800 815 c0 -84 6 -99 30 -70 9 11 34 15 101 15 113 0 134 18 112
98 -4 17 -11 22 -24 19 -11 -3 -17 -2 -14 3 8 13 -35 20 -122 20 l-83 0 0 -85z"/>
<path d="M1647 233 c-4 -3 -7 -21 -7 -40 0 -23 5 -33 15 -33 8 0 15 6 15 14 0
8 9 18 20 21 11 4 18 11 15 16 -4 5 -2 9 4 9 5 0 11 -6 14 -12 3 -10 8 -9 22
2 16 13 181 15 1329 17 721 2 1318 4 1326 7 8 2 -606 4 -1366 5 -759 0 -1384
-2 -1387 -6z"/>
<path d="M5690 8980 c0 -5 9 -14 20 -20 19 -10 19 -13 6 -39 -17 -31 -6 -51
26 -51 19 0 22 -14 18 -87 -1 -26 3 -43 9 -43 6 0 11 -7 11 -15 0 -8 -5 -15
-11 -15 -6 0 -9 -9 -6 -20 3 -12 0 -20 -7 -20 -7 0 -18 -27 -24 -60 -7 -33
-24 -93 -37 -133 -14 -40 -26 -85 -27 -100 -1 -15 -5 -27 -9 -27 -5 0 -19 -50
-20 -75 0 -2 -9 -21 -19 -42 -12 -24 -15 -40 -8 -44 7 -4 7 -8 -1 -10 -9 -4
-55 -114 -68 -164 -2 -11 -9 -30 -15 -42 -6 -12 -9 -30 -6 -40 3 -10 -1 -24
-8 -30 -21 -21 -55 -148 -54 -210 0 -12 -5 -25 -10 -28 -6 -3 -10 -13 -10 -21
0 -12 4 -11 19 3 17 16 129 305 256 658 58 162 41 117 151 414 52 139 94 258
94 262 0 5 -38 9 -84 9 -79 0 -84 -1 -79 -20 4 -14 0 -20 -11 -20 -9 0 -16 6
-16 14 0 8 -5 18 -12 22 -8 5 -9 2 -5 -9 8 -21 -6 -22 -23 -2 -14 17 -40 20
-40 5z"/>
<path d="M6062 8923 c-24 -69 -140 -391 -257 -713 -154 -424 -220 -619 -211
-628 3 -3 6 1 6 9 0 8 9 20 21 27 14 9 18 19 13 34 -3 12 -2 18 3 15 13 -8 78
127 143 298 29 77 68 178 86 225 19 47 34 89 34 94 0 5 11 32 24 60 13 28 26
60 28 71 1 11 13 40 26 64 12 24 22 52 22 62 0 9 5 19 11 21 5 2 11 10 13 18
5 26 39 90 49 90 4 0 6 8 2 19 -5 18 24 80 53 110 7 7 10 22 7 33 -7 19 11 51
24 44 3 -2 11 6 17 19 10 20 9 22 -5 17 -14 -5 -14 -3 2 15 9 11 17 29 17 41
0 20 -5 22 -53 22 l-52 0 -23 -67z"/>
<path d="M6320 8969 c-7 -11 -9 -23 -6 -26 3 -3 -2 -12 -12 -20 -16 -13 -15
-14 5 -10 28 6 34 -11 14 -42 l-15 -24 31 17 c20 10 34 12 38 6 3 -6 -1 -10
-9 -10 -9 0 -16 -5 -16 -11 0 -7 10 -9 25 -7 21 5 25 1 25 -20 0 -21 2 -22 15
-12 12 10 15 10 15 -4 0 -11 9 -16 27 -16 25 0 25 -1 10 -18 -21 -23 -21 -32
-2 -32 8 0 15 8 15 18 0 11 3 13 8 6 4 -7 16 -14 27 -17 18 -4 18 -5 -3 -6
-19 -1 -21 -4 -11 -20 14 -22 5 -56 -12 -45 -8 4 -9 3 -5 -4 4 -7 17 -12 29
-12 12 0 30 -11 39 -24 16 -22 16 -24 -3 -45 l-20 -21 26 0 c20 0 25 -5 25
-25 0 -14 -7 -28 -15 -32 -14 -5 -14 -8 1 -24 16 -18 15 -18 -13 -10 -17 5
-39 13 -50 19 -20 11 -53 -1 -40 -15 5 -4 12 -1 17 7 8 13 10 12 10 -2 0 -10
-7 -18 -16 -18 -14 0 -14 -2 -3 -16 12 -14 14 -14 21 5 4 12 14 21 23 21 16 0
21 -25 5 -35 -5 -3 -7 -12 -4 -20 3 -7 -2 -25 -12 -40 -9 -14 -14 -29 -10 -32
4 -4 9 3 13 15 6 24 11 26 33 12 13 -9 12 -12 -4 -25 -10 -8 -23 -16 -29 -18
-6 -2 -6 -11 2 -25 9 -17 17 -20 41 -15 34 6 43 -15 10 -24 -12 -3 -20 -14
-20 -27 0 -11 -3 -31 -6 -42 -4 -16 0 -23 16 -27 l22 -6 -26 -24 c-28 -26 -35
-57 -12 -57 21 0 30 -19 16 -35 -9 -11 -5 -16 22 -24 32 -10 32 -11 3 -7 -28
4 -28 3 -10 -10 10 -8 25 -14 34 -14 8 0 11 -3 8 -7 -4 -3 -2 -12 4 -19 13
-16 -10 -44 -35 -44 -22 0 -20 -36 2 -49 9 -6 13 -11 7 -11 -5 0 3 -7 19 -15
15 -8 32 -12 37 -9 5 3 14 2 20 -2 7 -4 1 -15 -16 -30 -16 -13 -23 -24 -17
-24 7 0 12 -7 12 -15 0 -8 -6 -14 -12 -12 -9 1 -13 -12 -14 -40 -2 -39 0 -42
17 -33 15 8 17 7 13 -5 -4 -8 -12 -15 -20 -15 -22 0 -16 -17 7 -23 16 -4 20
-11 16 -26 -4 -18 0 -21 23 -21 30 0 43 -18 29 -41 -7 -11 -9 -11 -9 -1 0 7
-5 10 -11 6 -7 -4 -5 -12 6 -23 13 -12 19 -13 22 -3 7 19 35 14 66 -12 l28
-22 -25 -12 c-14 -6 -34 -8 -43 -5 -15 6 -16 4 -5 -9 10 -13 10 -18 1 -24 -9
-5 -7 -9 6 -14 28 -10 64 12 71 43 3 15 12 27 19 27 8 0 11 -7 8 -20 -5 -18
-2 -19 27 -14 31 7 32 6 21 -15 -12 -22 -31 -29 -31 -10 0 8 -5 7 -15 -1 -21
-17 -11 -24 30 -22 32 2 35 1 35 -26 0 -41 -20 -56 -56 -41 -16 7 -32 12 -36
11 -5 -1 -8 6 -8 16 0 18 -34 45 -44 35 -14 -14 -4 -34 28 -55 19 -13 37 -30
39 -38 6 -22 61 -19 65 3 4 22 12 21 27 0 9 -12 10 -23 4 -35 -7 -14 -6 -18 6
-18 21 0 19 -12 -5 -38 -12 -12 -16 -22 -11 -22 5 0 11 -8 14 -17 4 -19 6 -16
21 29 3 11 11 15 21 12 10 -4 12 -11 6 -21 -5 -9 -6 -23 -4 -33 4 -17 -41 -45
-56 -35 -10 5 -6 -39 4 -55 4 -6 17 -10 28 -9 48 3 67 -1 67 -17 0 -12 -7 -14
-28 -9 -20 4 -33 1 -42 -10 -12 -15 0 -22 14 -8 10 11 86 12 86 2 0 -5 16 -9
36 -9 24 0 34 4 31 13 -2 7 -17 11 -35 9 -20 -2 -32 1 -32 8 0 8 12 11 34 8
l34 -4 0 108 c0 86 -3 108 -14 108 -8 0 -14 5 -14 10 0 6 7 10 15 10 12 0 14
80 15 590 0 521 -1 590 -15 590 -8 0 -15 5 -15 11 0 6 -8 8 -17 5 -25 -8 -45
7 -37 27 9 24 45 21 51 -3 3 -11 12 -20 19 -20 12 0 14 42 14 239 l0 240 -390
1 c-385 0 -389 0 -400 -21z m416 -534 c1 -31 -2 -58 -7 -61 -5 -3 -7 -9 -4
-14 3 -5 -4 -14 -16 -20 -16 -9 -24 -8 -37 2 -19 17 -62 21 -62 7 0 -16 -17
-10 -24 8 -4 10 -1 22 7 28 20 14 29 55 11 48 -24 -9 -15 21 13 41 14 11 23
14 19 8 -9 -16 7 -15 22 0 7 7 12 8 12 2 0 -5 -5 -15 -12 -22 -9 -9 -8 -12 5
-12 10 0 17 8 17 20 0 23 31 43 45 29 5 -5 10 -34 11 -64z"/>
<path d="M5182 6912 c-10 -7 -8 -12 6 -25 10 -10 18 -27 16 -40 -1 -12 -3 -28
-3 -34 -1 -7 -10 -13 -20 -13 -12 0 -22 -9 -27 -22 -3 -13 -13 -30 -20 -39
-13 -15 -7 -18 57 -33 39 -10 72 -16 74 -14 10 11 15 67 6 73 -16 9 -13 31 5
49 17 18 11 36 -12 36 -8 0 -12 5 -9 10 3 6 1 10 -4 10 -6 0 -11 9 -11 19 0
26 -32 39 -58 23z"/>
<path d="M4845 6395 c-20 -30 -40 -67 -44 -82 -7 -26 -11 -28 -54 -25 -25 2
-48 -2 -52 -7 -3 -6 28 -45 70 -88 l76 -78 -3 129 c-3 113 -1 130 14 140 35
22 43 -6 48 -182 4 -140 7 -167 20 -168 10 -1 15 8 15 25 0 23 4 26 38 29 l37
3 0 120 0 119 -24 0 c-56 0 -74 27 -36 53 21 14 21 14 -2 29 -65 42 -64 43
-103 -17z"/>
<path d="M4502 6321 c18 -47 13 -142 -10 -188 -12 -23 -27 -45 -34 -49 -15
-10 21 -21 68 -23 l32 -1 1 109 c2 135 -2 154 -39 168 -28 11 -28 10 -18 -16z"/>
<path d="M4295 6308 c-32 -25 -64 -91 -65 -131 0 -62 46 -96 120 -89 35 4 45
10 66 42 17 26 28 58 31 98 5 55 4 60 -22 80 -37 29 -93 29 -130 0z"/>
<path d="M7060 6296 c-14 -7 -49 -16 -79 -19 -30 -4 -57 -11 -61 -17 -4 -6
-14 -8 -23 -4 -12 4 -17 1 -17 -10 0 -11 -9 -16 -32 -16 -18 0 -42 -3 -54 -6
-12 -3 -27 1 -37 10 -8 9 -24 16 -33 16 -16 0 -16 -1 2 -14 15 -12 17 -17 7
-27 -10 -10 -13 -10 -13 -1 0 7 -16 12 -40 12 -38 0 -54 -13 -27 -23 7 -3 5
-6 -5 -6 -14 -1 -18 -10 -18 -41 0 -22 5 -40 11 -40 5 0 7 -4 4 -10 -3 -5 1
-10 9 -10 9 0 16 5 16 10 0 6 7 10 15 10 8 0 15 -4 15 -10 0 -5 11 -10 23 -10
13 0 26 -3 30 -6 10 -10 -22 -51 -46 -59 -79 -26 -147 -41 -149 -34 -2 5 -23
5 -48 1 -33 -6 -46 -13 -48 -27 -2 -11 -17 -32 -33 -47 -22 -21 -29 -36 -29
-65 l0 -38 54 0 c61 0 65 2 68 36 3 25 15 39 35 39 7 0 10 -11 8 -27 -2 -16
-4 -31 -4 -35 -1 -5 -10 -8 -21 -8 -11 0 -20 -6 -20 -12 0 -7 -15 -24 -33 -38
-46 -36 -87 -80 -87 -94 0 -7 -11 -18 -24 -26 -30 -15 -25 -34 18 -72 29 -26
30 -29 13 -42 -16 -12 -17 -18 -6 -38 7 -13 12 -28 11 -35 -2 -7 16 -14 43
-18 25 -4 45 -10 45 -14 0 -14 -93 -121 -105 -121 -17 0 -25 -23 -25 -71 0
-28 4 -39 15 -39 9 0 15 -9 15 -21 0 -22 34 -59 54 -59 6 0 2 -7 -8 -15 -16
-12 -17 -15 -4 -15 9 0 29 -13 45 -28 15 -16 39 -34 51 -41 35 -19 147 -37
351 -58 l64 -6 -7 -79 c-4 -44 -12 -87 -18 -97 -12 -20 -5 -51 12 -51 5 0 10
20 10 45 0 49 1 50 32 34 16 -9 23 -8 29 2 12 19 11 59 -1 59 -5 0 -10 20 -10
45 0 44 0 44 26 35 14 -6 39 -10 55 -10 l29 0 0 685 c0 542 -3 685 -12 685 -7
-1 -24 -7 -38 -14z"/>
<path d="M4620 6158 l0 -106 68 -7 c37 -3 86 -12 109 -19 24 -7 44 -12 46 -10
2 2 -29 37 -68 76 -39 40 -90 96 -113 123 l-41 50 -1 -107z"/>
<path d="M509 5659 c-22 -23 -29 -41 -29 -70 0 -22 -9 -57 -20 -79 -24 -47
-26 -93 -5 -110 20 -17 19 -30 -4 -30 -15 0 -19 -11 -24 -67 -6 -59 -4 -70 13
-88 18 -17 20 -18 20 -2 0 9 4 17 8 17 16 0 40 56 35 83 -4 22 -2 27 16 27 11
0 21 5 21 10 0 14 -23 13 -38 -2 -17 -17 -28 -2 -12 17 14 17 50 21 50 5 0 -5
11 -10 25 -10 27 0 34 17 10 26 -8 4 -15 13 -15 20 0 8 7 17 15 20 8 4 15 15
15 25 0 11 7 19 16 19 14 0 15 7 10 40 -4 26 -2 40 4 40 6 0 9 -4 5 -9 -3 -5
-1 -12 5 -16 6 -4 10 5 10 19 0 14 -4 26 -9 26 -5 0 -20 21 -33 48 -13 26 -29
46 -36 45 -6 -2 -9 4 -6 12 10 26 -17 16 -47 -16z"/>
<path d="M720 5580 c0 -25 -4 -30 -25 -30 -14 0 -25 -2 -25 -4 0 -17 27 -76
43 -94 12 -13 23 -42 27 -70 4 -35 10 -48 23 -50 16 -3 17 -1 7 18 -13 24 0
70 19 70 5 0 11 18 13 39 2 22 0 37 -5 34 -4 -3 -7 16 -6 40 3 52 -12 77 -47
77 -20 0 -24 -5 -24 -30z"/>
<path d="M4941 3845 c-1 -17 -29 -227 -56 -425 -14 -102 -25 -194 -24 -205 0
-19 1 -18 11 3 6 12 17 22 24 22 7 0 107 -56 221 -125 170 -103 209 -123 216
-110 11 21 27 9 27 -21 0 -15 -16 -42 -40 -68 -22 -24 -40 -48 -40 -54 0 -6
-9 -16 -20 -22 -16 -9 -20 -8 -20 5 0 8 6 24 13 35 10 17 9 22 -3 30 -21 14
-24 11 -70 -50 -54 -73 -94 -155 -85 -177 6 -17 7 -17 16 0 12 21 29 22 29 2
0 -8 6 -15 14 -15 8 0 16 -4 18 -9 2 -6 46 -19 98 -31 52 -12 107 -27 122 -35
49 -24 59 -15 121 111 47 93 60 131 63 174 1 30 8 82 13 115 19 108 17 115
-91 227 -16 16 -28 33 -28 38 0 6 -4 10 -10 10 -5 0 -10 6 -10 13 0 17 -72 90
-107 108 -26 13 -121 72 -152 94 -25 18 -191 190 -191 198 0 12 54 -19 124
-73 36 -27 66 -46 66 -42 0 31 -97 140 -200 225 -8 7 -23 24 -32 37 -9 14 -17
20 -17 15z"/>
<path d="M2203 3 c351 -2 923 -2 1270 0 348 1 61 2 -638 2 -698 0 -983 -1
-632 -2z"/>
</g>
</svg>
